<svg xmlns="http://www.w3.org/2000/svg" viewBox="0 0 1452.64 99"><defs><style>.cls-1{fill:#666;}.cls-2{fill:#0095aa;}</style></defs><g id="Layer_2" data-name="Layer 2"><g id="Layer_1-2" data-name="Layer 1"><path class="cls-1" d="M1039.24,45.7V34.42h-3V31.81l3.18-.2.42-5.72h2.88v5.72h5.53v2.81h-5.53V45.76c0,2.49.8,3.94,3.16,3.94a6.9,6.9,0,0,0,2.32-.55l.67,2.6a12.34,12.34,0,0,1-3.79.76C1040.71,52.51,1039.24,49.76,1039.24,45.7Z"/><path class="cls-1" d="M1051.77,22.11h3.45v8.18l-.13,4.19c1.91-1.84,4-3.38,6.78-3.38,4.29,0,6.22,2.78,6.22,8V52h-3.45V39.53c0-3.8-1.15-5.43-3.85-5.43-2.08,0-3.53,1.07-5.57,3.14V52h-3.45Z"/><path class="cls-1" d="M1072,41.83c0-6.64,4.47-10.73,9.17-10.73,5.2,0,8.14,3.74,8.14,9.57a12.05,12.05,0,0,1-.16,2h-13.74c.25,4.32,2.89,7.12,6.78,7.12a8.9,8.9,0,0,0,5.07-1.63l1.24,2.26a12,12,0,0,1-6.74,2.12C1076.36,52.51,1072,48.53,1072,41.83Zm14.26-1.67c0-4.08-1.84-6.3-5-6.3-2.87,0-5.43,2.3-5.85,6.3Z"/><path class="cls-1" d="M1099.89,31.61h3.53l3,11.78c.45,1.94.83,3.77,1.21,5.69h.17c.44-1.92.89-3.78,1.39-5.69l3.15-11.78h3.37l3.18,11.78c.5,1.94.94,3.77,1.42,5.69h.16c.44-1.92.82-3.75,1.27-5.69l3-11.78H1128L1122.55,52h-4.21l-2.94-11c-.49-1.93-.88-3.8-1.38-5.87h-.16c-.45,2.07-.86,4-1.4,5.93L1109.6,52h-4Z"/><path class="cls-1" d="M1129.72,41.83c0-6.64,4.47-10.73,9.17-10.73,5.2,0,8.14,3.74,8.14,9.57a11,11,0,0,1-.16,2h-13.74c.25,4.32,2.89,7.12,6.78,7.12a8.88,8.88,0,0,0,5.07-1.63l1.24,2.26a12,12,0,0,1-6.73,2.12C1134.05,52.51,1129.72,48.53,1129.72,41.83ZM1144,40.16c0-4.08-1.84-6.3-5-6.3-2.87,0-5.43,2.3-5.85,6.3Z"/><path class="cls-1" d="M1154.19,49.9h-.11l-.32,2.1H1151V22.11h3.45v8.18l-.12,3.66a10.34,10.34,0,0,1,6.41-2.85c5.27,0,8.1,4.09,8.1,10.38,0,7-4.17,11-8.83,11A9.14,9.14,0,0,1,1154.19,49.9Zm11.09-8.37c0-4.5-1.54-7.52-5.38-7.52-1.73,0-3.52,1-5.45,2.78V47.48a7.86,7.86,0,0,0,5,2.12C1162.79,49.6,1165.28,46.56,1165.28,41.53Z"/><path class="cls-1" d="M1171.24,32.31c2.11-1.38,3.19-2.85,3.19-5.26l-.5-2.78,1.74,2.14a2.21,2.21,0,0,1-3.84-1.39,2.14,2.14,0,0,1,2.23-2.32c1.66,0,2.64,1.36,2.64,3.79a8.1,8.1,0,0,1-4.47,7.44Z"/><path class="cls-1" d="M1178,49.68l1.7-2.28a9.17,9.17,0,0,0,6,2.42c2.68,0,4-1.43,4-3.17,0-2.1-2.41-3-4.66-3.86-2.86-1-6.09-2.45-6.09-5.89,0-3.27,2.62-5.8,7-5.8a10.35,10.35,0,0,1,6.34,2.3l-1.65,2.21a7.67,7.67,0,0,0-4.65-1.82c-2.57,0-3.76,1.37-3.76,2.93,0,1.94,2.22,2.68,4.53,3.54,2.94,1.11,6.22,2.3,6.22,6.18,0,3.31-2.63,6.07-7.44,6.07A12.27,12.27,0,0,1,1178,49.68Z"/><path class="cls-1" d="M1205.79,31.61h2.86l.29,3h.11c1.79-1.93,3.92-3.47,6.35-3.47A5.39,5.39,0,0,1,1221,35c2.12-2.29,4.24-3.89,6.72-3.89,4.2,0,6.21,2.78,6.21,8V52h-3.45V39.53c0-3.8-1.2-5.43-3.8-5.43-1.58,0-3.22,1-5.11,3.14V52h-3.45V39.53c0-3.8-1.2-5.43-3.79-5.43-1.53,0-3.23,1-5.12,3.14V52h-3.45Z"/><path class="cls-1" d="M1237.17,41.83c0-6.8,4.45-10.73,9.45-10.73s9.45,3.93,9.45,10.73-4.45,10.68-9.45,10.68S1237.17,48.59,1237.17,41.83Zm15.34,0c0-4.67-2.38-7.85-5.89-7.85s-5.88,3.18-5.88,7.85,2.38,7.8,5.88,7.8S1252.51,46.51,1252.51,41.83Z"/><path class="cls-1" d="M1258,49.68l1.71-2.28a9.17,9.17,0,0,0,6,2.42c2.68,0,4-1.43,4-3.17,0-2.1-2.41-3-4.67-3.86-2.86-1-6.08-2.45-6.08-5.89,0-3.27,2.61-5.8,7-5.8a10.35,10.35,0,0,1,6.34,2.3l-1.65,2.21a7.64,7.64,0,0,0-4.65-1.82c-2.57,0-3.75,1.37-3.75,2.93,0,1.94,2.22,2.68,4.52,3.54,3,1.11,6.22,2.3,6.22,6.18,0,3.31-2.62,6.07-7.44,6.07A12.29,12.29,0,0,1,1258,49.68Z"/><path class="cls-1" d="M1277.43,45.7V34.42h-3V31.81l3.19-.2.41-5.72h2.88v5.72h5.53v2.81h-5.53V45.76c0,2.49.81,3.94,3.16,3.94a6.9,6.9,0,0,0,2.32-.55l.67,2.6a12.28,12.28,0,0,1-3.79.76C1278.9,52.51,1277.43,49.76,1277.43,45.7Z"/><path class="cls-1" d="M1297.46,41.83c0-6.64,4.48-10.73,9.17-10.73,5.2,0,8.14,3.74,8.14,9.57a11,11,0,0,1-.16,2h-13.73c.24,4.32,2.88,7.12,6.77,7.12a8.91,8.91,0,0,0,5.08-1.63l1.23,2.26a12,12,0,0,1-6.73,2.12C1301.79,52.51,1297.46,48.53,1297.46,41.83Zm14.26-1.67c0-4.08-1.84-6.3-5-6.3-2.86,0-5.42,2.3-5.84,6.3Z"/><path class="cls-1" d="M1322.26,41.36l-6.17-9.75h3.74l2.73,4.47c.63,1.13,1.32,2.28,2,3.4h.17c.61-1.12,1.22-2.27,1.84-3.4l2.49-4.47h3.6l-6.17,10.11L1333.15,52h-3.74l-3-4.74c-.7-1.22-1.45-2.48-2.21-3.66H1324c-.7,1.18-1.36,2.42-2.06,3.66L1319.19,52h-3.6Z"/><path class="cls-1" d="M1338.23,45.7V34.42h-3V31.81l3.19-.2.42-5.72h2.88v5.72h5.52v2.81h-5.52V45.76c0,2.49.8,3.94,3.15,3.94a7,7,0,0,0,2.33-.55l.66,2.6a12.22,12.22,0,0,1-3.78.76C1339.7,52.51,1338.23,49.76,1338.23,45.7Z"/><path class="cls-1" d="M1349.49,41.83c0-6.64,4.47-10.73,9.17-10.73,5.2,0,8.14,3.74,8.14,9.57a11,11,0,0,1-.16,2H1352.9c.25,4.32,2.89,7.12,6.78,7.12a8.88,8.88,0,0,0,5.07-1.63l1.24,2.26a12,12,0,0,1-6.73,2.12C1353.82,52.51,1349.49,48.53,1349.49,41.83Zm14.26-1.67c0-4.08-1.84-6.3-5-6.3-2.86,0-5.43,2.3-5.85,6.3Z"/><path class="cls-1" d="M1370.77,31.61h2.85l.29,2.94h.12c1.94-1.91,4-3.45,6.84-3.45,4.29,0,6.23,2.78,6.23,8V52h-3.45V39.53c0-3.8-1.15-5.43-3.85-5.43-2.09,0-3.53,1.07-5.58,3.14V52h-3.45Z"/><path class="cls-1" d="M1390.41,49.68l1.7-2.28a9.17,9.17,0,0,0,6,2.42c2.68,0,4-1.43,4-3.17,0-2.1-2.41-3-4.66-3.86-2.86-1-6.09-2.45-6.09-5.89,0-3.27,2.62-5.8,7-5.8a10.35,10.35,0,0,1,6.34,2.3l-1.65,2.21a7.67,7.67,0,0,0-4.65-1.82c-2.57,0-3.76,1.37-3.76,2.93,0,1.94,2.22,2.68,4.53,3.54,2.94,1.11,6.22,2.3,6.22,6.18,0,3.31-2.63,6.07-7.44,6.07A12.27,12.27,0,0,1,1390.41,49.68Z"/><path class="cls-1" d="M1408.57,25.19a2.39,2.39,0,0,1,4.77,0,2.39,2.39,0,0,1-4.77,0Zm.63,6.42h3.45V52h-3.45Z"/><path class="cls-1" d="M1415.54,31.61h3.55L1423,43.2c.61,2,1.27,4.06,1.88,6h.17c.61-2,1.27-4,1.88-6l3.86-11.59h3.38L1426.91,52h-4Z"/><path class="cls-1" d="M1435.34,41.83c0-6.64,4.47-10.73,9.16-10.73,5.21,0,8.14,3.74,8.14,9.57a11,11,0,0,1-.16,2h-13.73c.24,4.32,2.89,7.12,6.78,7.12a8.9,8.9,0,0,0,5.07-1.63l1.23,2.26a12,12,0,0,1-6.73,2.12C1439.67,52.51,1435.34,48.53,1435.34,41.83Zm14.25-1.67c0-4.08-1.83-6.3-5-6.3-2.87,0-5.43,2.3-5.85,6.3Z"/><path class="cls-1" d="M1038.64,75.9h2.85l.29,3h.11c1.79-1.93,3.92-3.47,6.35-3.47a5.38,5.38,0,0,1,5.63,3.89c2.12-2.29,4.25-3.89,6.73-3.89,4.19,0,6.2,2.78,6.2,8V96.29h-3.45V83.82c0-3.8-1.2-5.43-3.79-5.43-1.59,0-3.23,1-5.12,3.13V96.29H1051V83.82c0-3.8-1.2-5.43-3.79-5.43q-2.29,0-5.11,3.13V96.29h-3.45Z"/><path class="cls-1" d="M1070.27,91c0-4.45,3.83-6.67,12.52-7.61,0-2.63-.88-5.15-4.21-5.15a11.22,11.22,0,0,0-6.08,2.18l-1.35-2.36a15,15,0,0,1,8-2.67c5,0,7.09,3.31,7.09,8.39V96.29h-2.86l-.29-2.44H1083a10.86,10.86,0,0,1-6.75,3C1072.83,96.8,1070.27,94.68,1070.27,91Zm12.52.32V85.65c-6.83.82-9.14,2.5-9.14,5.1,0,2.32,1.57,3.27,3.57,3.27S1080.82,93.06,1082.79,91.32Z"/><path class="cls-1" d="M1091.65,90V78.71h-3V76.1l3.19-.2.42-5.72h2.88V75.9h5.52v2.81h-5.52V90.05c0,2.49.8,3.94,3.15,3.94a6.9,6.9,0,0,0,2.32-.55l.67,2.6a12.22,12.22,0,0,1-3.78.76C1093.12,96.8,1091.65,94.05,1091.65,90Z"/><path class="cls-1" d="M1105,66.4h3.45v8.18l-.12,4.19c1.9-1.84,4-3.38,6.77-3.38,4.3,0,6.23,2.78,6.23,8V96.29h-3.45V83.82c0-3.8-1.15-5.43-3.85-5.43-2.09,0-3.53,1.07-5.58,3.13V96.29H1105Z"/><path class="cls-1" d="M1125.27,86.12c0-6.64,4.48-10.73,9.17-10.73,5.2,0,8.14,3.74,8.14,9.57a11,11,0,0,1-.16,2h-13.74c.25,4.32,2.89,7.12,6.78,7.12a8.91,8.91,0,0,0,5.08-1.63l1.23,2.26A12,12,0,0,1,1135,96.8C1129.6,96.8,1125.27,92.82,1125.27,86.12Zm14.26-1.67c0-4.08-1.84-6.31-5-6.31-2.86,0-5.43,2.31-5.85,6.31Z"/><path class="cls-1" d="M1146.55,75.9h2.85l.29,3h.12c1.78-1.93,3.91-3.47,6.34-3.47a5.38,5.38,0,0,1,5.63,3.89c2.12-2.29,4.25-3.89,6.73-3.89,4.19,0,6.21,2.78,6.21,8V96.29h-3.46V83.82c0-3.8-1.2-5.43-3.79-5.43-1.58,0-3.23,1-5.11,3.13V96.29h-3.45V83.82c0-3.8-1.2-5.43-3.8-5.43-1.53,0-3.22,1-5.11,3.13V96.29h-3.45Z"/><path class="cls-1" d="M1178.18,91c0-4.45,3.84-6.67,12.53-7.61,0-2.63-.88-5.15-4.21-5.15a11.26,11.26,0,0,0-6.09,2.18l-1.35-2.36a15,15,0,0,1,8-2.67c5,0,7.08,3.31,7.08,8.39V96.29h-2.85l-.29-2.44h-.12a10.81,10.81,0,0,1-6.74,3C1180.74,96.8,1178.18,94.68,1178.18,91Zm12.53.32V85.65c-6.84.82-9.15,2.5-9.15,5.1,0,2.32,1.57,3.27,3.58,3.27S1188.73,93.06,1190.71,91.32Z"/><path class="cls-1" d="M1200.4,90V78.71h-3V76.1l3.18-.2.42-5.72h2.88V75.9h5.53v2.81h-5.53V90.05c0,2.49.8,3.94,3.15,3.94a6.9,6.9,0,0,0,2.33-.55L1210,96a12.34,12.34,0,0,1-3.79.76C1201.87,96.8,1200.4,94.05,1200.4,90Z"/><path class="cls-1" d="M1213.13,69.47a2.39,2.39,0,0,1,4.77,0,2.39,2.39,0,0,1-4.77,0Zm.64,6.43h3.45V96.29h-3.45Z"/><path class="cls-1" d="M1222.36,86.12c0-6.8,4.6-10.73,9.82-10.73a8.55,8.55,0,0,1,6,2.4l-1.76,2.28a5.94,5.94,0,0,0-4.05-1.8c-3.69,0-6.4,3.18-6.4,7.85s2.56,7.8,6.31,7.8a7.36,7.36,0,0,0,4.79-2l1.49,2.31a9.89,9.89,0,0,1-6.59,2.6C1226.5,96.8,1222.36,92.88,1222.36,86.12Z"/><path class="cls-1" d="M1240.54,94l1.7-2.28a9.17,9.17,0,0,0,6,2.42c2.68,0,4-1.43,4-3.17,0-2.1-2.41-3-4.67-3.86-2.85-1-6.08-2.46-6.08-5.9,0-3.26,2.62-5.79,7-5.79a10.29,10.29,0,0,1,6.34,2.3l-1.65,2.21a7.69,7.69,0,0,0-4.65-1.82c-2.57,0-3.76,1.37-3.76,2.93,0,1.94,2.22,2.68,4.53,3.54,2.94,1.1,6.22,2.3,6.22,6.18,0,3.31-2.63,6.07-7.44,6.07A12.24,12.24,0,0,1,1240.54,94Z"/><path class="cls-1" d="M1268.35,75.9h2.85l.29,3.71h.12c1.42-2.59,3.5-4.22,5.8-4.22a4.78,4.78,0,0,1,2.17.42l-.64,3a5.71,5.71,0,0,0-2-.33c-1.72,0-3.78,1.24-5.16,4.69V96.29h-3.45Z"/><path class="cls-1" d="M1280.77,86.12c0-6.64,4.47-10.73,9.16-10.73,5.21,0,8.14,3.74,8.14,9.57a11,11,0,0,1-.16,2h-13.73c.24,4.32,2.89,7.12,6.78,7.12a8.9,8.9,0,0,0,5.07-1.63l1.23,2.26a12,12,0,0,1-6.73,2.12C1285.1,96.8,1280.77,92.82,1280.77,86.12ZM1295,84.45c0-4.08-1.83-6.31-5-6.31-2.87,0-5.43,2.31-5.85,6.31Z"/><path class="cls-1" d="M1300.62,94l1.7-2.28a9.17,9.17,0,0,0,6,2.42c2.68,0,4-1.43,4-3.17,0-2.1-2.41-3-4.66-3.86-2.86-1-6.08-2.46-6.08-5.9,0-3.26,2.61-5.79,7-5.79a10.29,10.29,0,0,1,6.34,2.3l-1.65,2.21a7.67,7.67,0,0,0-4.65-1.82c-2.57,0-3.76,1.37-3.76,2.93,0,1.94,2.22,2.68,4.53,3.54,2.94,1.1,6.22,2.3,6.22,6.18,0,3.31-2.63,6.07-7.44,6.07A12.27,12.27,0,0,1,1300.62,94Z"/><path class="cls-1" d="M1317.9,86.12c0-6.8,4.45-10.73,9.45-10.73s9.45,3.93,9.45,10.73-4.45,10.68-9.45,10.68S1317.9,92.88,1317.9,86.12Zm15.33,0c0-4.67-2.37-7.85-5.88-7.85s-5.89,3.18-5.89,7.85,2.38,7.8,5.89,7.8S1333.23,90.8,1333.23,86.12Z"/><path class="cls-1" d="M1340.83,88.82V75.9h3.45V88.37c0,3.8,1.15,5.43,3.85,5.43,2.09,0,3.53-1,5.46-3.44V75.9H1357V96.29h-2.85l-.29-3.19h-.11c-1.9,2.22-3.93,3.7-6.73,3.7C1342.76,96.8,1340.83,94,1340.83,88.82Z"/><path class="cls-1" d="M1362.88,75.9h2.85l.29,3.71h.12c1.42-2.59,3.5-4.22,5.8-4.22a4.78,4.78,0,0,1,2.17.42l-.64,3a5.71,5.71,0,0,0-2-.33c-1.72,0-3.78,1.24-5.16,4.69V96.29h-3.45Z"/><path class="cls-1" d="M1374.45,86.12c0-6.8,4.6-10.73,9.82-10.73a8.55,8.55,0,0,1,6,2.4l-1.76,2.28a5.92,5.92,0,0,0-4-1.8c-3.69,0-6.4,3.18-6.4,7.85s2.56,7.8,6.31,7.8a7.34,7.34,0,0,0,4.79-2l1.49,2.31a9.87,9.87,0,0,1-6.59,2.6C1378.59,96.8,1374.45,92.88,1374.45,86.12Z"/><path class="cls-1" d="M1392.5,86.12c0-6.64,4.47-10.73,9.17-10.73,5.2,0,8.14,3.74,8.14,9.57a11,11,0,0,1-.17,2h-13.73c.25,4.32,2.89,7.12,6.78,7.12a8.9,8.9,0,0,0,5.07-1.63l1.24,2.26a12,12,0,0,1-6.74,2.12C1396.83,96.8,1392.5,92.82,1392.5,86.12Zm14.25-1.67c0-4.08-1.83-6.31-5-6.31-2.87,0-5.43,2.31-5.85,6.31Z"/><polygon class="cls-2" points="501.69 56.56 479.41 10.84 463.57 10.84 463.57 96.29 475 96.29 475 27.09 497.6 73.01 497.69 73.19 505.14 73.19 528.08 27.07 528.08 96.29 539.51 96.29 539.51 10.84 524.16 10.84 501.69 56.56"/><path class="cls-2" d="M594.48,34.63c-4.05-3.38-10.8-5.1-20.06-5.1-6,0-11.07,1-15.12,2.88a19.75,19.75,0,0,0-9.12,8.32L550,41l9.19,5.6.16-.28a15,15,0,0,1,5-4.8c2.29-1.47,5.6-2.21,9.85-2.21,4.77,0,8.55.89,11.24,2.64s4,5,4,9.84v2.83L573.89,56c-6.26.74-11.11,2-14.41,3.68a18.54,18.54,0,0,0-7.67,7.05,21.59,21.59,0,0,0-2.65,11.16c0,5.9,1.71,10.8,5.07,14.58s8.24,5.72,14.43,5.72A22.8,22.8,0,0,0,580,95.33a60.28,60.28,0,0,0,9.38-6.68v7.64H600.6v-44C600.6,44,598.54,38,594.48,34.63Zm-5.07,29.1V78.89l-4,3.19a37.48,37.48,0,0,1-4.34,3,31,31,0,0,1-4.55,2.18,12.76,12.76,0,0,1-4.6.87c-3.74,0-6.58-.82-8.43-2.43s-2.76-4.3-2.76-8c0-3.91,1.39-6.93,4.15-9s7.71-3.4,14.61-4Z"/><path class="cls-2" d="M643.56,87a21.23,21.23,0,0,1-8.51,1.69c-3.44,0-5.68-1.07-6.66-3.18s-1.53-5.89-1.53-11V40.84h16.29V31.37H626.86V13.48H615.67V31.37h-9.19v9.47h9.19v35.7c0,7.4,1.46,12.91,4.33,16.38s7.71,5.27,14.31,5.27a41.4,41.4,0,0,0,12.23-1.92l.31-.09-3-9.3Z"/><path class="cls-2" d="M689.39,29.53A23.89,23.89,0,0,0,677.29,33a50.89,50.89,0,0,0-9.93,7.44V4.41H656.17V96.29h11.19V50.71a62.85,62.85,0,0,1,10.25-7.34c3.53-2,6.65-3,9.27-3a10.8,10.8,0,0,1,6,1.35A7.5,7.5,0,0,1,695.67,46c.58,2,.87,6.07.87,12.13V96.29h11.19V53.08c0-8.46-1.49-14.55-4.42-18.13S695.68,29.53,689.39,29.53Z"/><polygon class="cls-2" points="783.69 78.73 767.71 11.09 767.65 10.84 754.33 10.84 738.54 78.23 723.05 11.1 722.99 10.84 711.05 10.84 731.18 96.04 731.24 96.29 745.04 96.29 760.84 29.5 776.51 96.04 776.57 96.29 790.63 96.29 811.25 10.84 799.49 10.84 783.69 78.73"/><path class="cls-2" d="M919.34,30.39a18.62,18.62,0,0,0-11,3.52,70.29,70.29,0,0,0-8.77,7.41V31.37H888.38V96.29h11.19V51.68c3.8-3.78,7.17-6.42,10-7.84a20,20,0,0,1,8.95-2.14,12.69,12.69,0,0,1,4.78.71l.36.15,2.4-10.73-.21-.12A13.9,13.9,0,0,0,919.34,30.39Z"/><rect class="cls-2" x="936.05" y="4.41" width="11.19" height="91.88"/><path class="cls-2" d="M1000.88,4.41V36.26a26.87,26.87,0,0,0-17.57-6.73c-8.16,0-14.63,3.2-19.25,9.51s-6.93,14.79-6.93,25.31c0,10.72,2.15,19.12,6.37,25s10.36,8.87,18.16,8.87a25.7,25.7,0,0,0,11-2.42,33.19,33.19,0,0,0,8.24-5.43v6h11.25V4.41Zm0,41.9V80a37.56,37.56,0,0,1-7.77,5.61,19.36,19.36,0,0,1-9.43,2.47c-9.95,0-15-8.07-15-24,0-8.42,1.51-14.7,4.5-18.64a13.83,13.83,0,0,1,11.47-5.91C990,39.55,995.41,41.83,1000.88,46.31Z"/><polygon class="cls-1" points="100.99 8.39 88.45 8.39 72.99 75.46 57.43 8.95 57.3 8.39 43.38 8.39 27.94 74.94 12.72 8.39 0 8.39 20.2 94.72 20.33 95.27 34.73 95.27 50.19 29.3 65.45 94.72 65.58 95.27 80.22 95.27 100.78 9.29 100.99 8.39"/><path class="cls-1" d="M128.69,27.22c-9.31,0-16.55,3-21.54,8.77s-7.48,14.65-7.48,26.34c0,11.48,2.5,20.25,7.44,26.05s12.23,8.8,21.58,8.8,16.58-3,21.49-8.89,7.35-14.61,7.35-26S155.07,42,150.21,36.15,138.08,27.22,128.69,27.22ZM141.1,80.74c-2.72,3.86-6.77,5.74-12.41,5.74-5.91,0-10.07-1.9-12.71-5.8s-4-10.11-4-18.35c0-8.57,1.39-14.88,4.15-18.75s6.92-5.72,12.56-5.72,9.6,1.87,12.36,5.69,4.17,10.17,4.17,18.78C145.22,70.65,143.83,76.85,141.1,80.74Z"/><rect class="cls-1" x="169.45" y="1.91" width="11.95" height="93.36"/><path class="cls-1" d="M233,2.47A31.52,31.52,0,0,0,220.3,0c-7.53,0-12.9,2-15.94,5.8s-4.53,9.75-4.53,17.7v5.57h-9.41V39.41h9.41V95.27h11.95V39.41H226V29.07H211.78V23.5c0-5.16.65-8.64,1.93-10.33s3.54-2.47,6.83-2.47a19.22,19.22,0,0,1,4.66.66,20,20,0,0,1,4.31,1.55l.75.39,3.33-10.57Z"/><path class="cls-1" d="M265.49,28.09a18.82,18.82,0,0,0-11.21,3.62,69,69,0,0,0-8.13,6.85V29.07h-12v66.2h12V50.1a40.51,40.51,0,0,1,9.78-7.71,19.33,19.33,0,0,1,8.76-2.12,12.16,12.16,0,0,1,4.61.68l.79.35,2.57-11.57-.47-.26A14.08,14.08,0,0,0,265.49,28.09Z"/><path class="cls-1" d="M321.36,32.45c-4.11-3.47-10.93-5.23-20.27-5.23-6,0-11.16,1-15.25,2.94a20.09,20.09,0,0,0-9.28,8.55l-.33.6,9.83,6,.37-.63a14.43,14.43,0,0,1,4.81-4.7c2.21-1.44,5.45-2.17,9.61-2.17,4.69,0,8.39.88,11,2.6s3.81,4.89,3.81,9.58v2.49l-15.15,1.36c-6.29.75-11.18,2-14.52,3.75a19,19,0,0,0-7.81,7.25,22.35,22.35,0,0,0-2.7,11.45c0,6,1.74,11.07,5.16,15s8.4,5.89,14.7,5.89a22.87,22.87,0,0,0,11.54-2.93A60.15,60.15,0,0,0,315.67,88v7.24h11.94V50.54C327.61,42,325.51,36,321.36,32.45ZM298.59,86.24c-3.64,0-6.38-.8-8.16-2.36s-2.62-4.15-2.62-7.79c0-3.86,1.3-6.71,4-8.71s7.57-3.36,14.38-4l9.5-.92V77.16c-1.27,1-2.55,2-3.87,3.09a34,34,0,0,1-4.28,3A30.25,30.25,0,0,1,303,85.39,12.41,12.41,0,0,1,298.59,86.24Z"/><path class="cls-1" d="M424.59,37.42a15,15,0,0,0-5.46-7.57c-2.48-1.74-5.78-2.63-9.83-2.63a20.46,20.46,0,0,0-12,3.77,65.22,65.22,0,0,0-9.4,8.14c-1-3.89-2.69-6.83-5.14-8.73-2.7-2.11-6.33-3.18-10.8-3.18a20.19,20.19,0,0,0-11.4,3.58,51.94,51.94,0,0,0-8.18,6.82V29.07H340.47v66.2h11.95V49.11a49.22,49.22,0,0,1,9.31-7.55c2.93-1.76,5.5-2.65,7.64-2.65,2.32,0,4,.4,5.08,1.19a6.89,6.89,0,0,1,2.24,4.12c.47,2.07.71,6.17.71,12.18V95.27h12V49.12a60.1,60.1,0,0,1,10-8,14.06,14.06,0,0,1,6.8-2.19A9.68,9.68,0,0,1,411.36,40a6,6,0,0,1,2.26,3.85c.48,2,.72,6.22.72,12.55V95.27h11.94V51.34C426.28,45.32,425.71,40.64,424.59,37.42Z"/><path class="cls-2" d="M844.32,26a36.5,36.5,0,1,0,36.5,36.5A36.54,36.54,0,0,0,844.32,26ZM820.17,80.27a20.22,20.22,0,0,1,.79-5.52A58.59,58.59,0,0,0,834,83l-2.18,4.77A49.85,49.85,0,0,1,820.17,80.27ZM831,89.4l-.78,1.7a37.48,37.48,0,0,1-8.57-5.56,7.26,7.26,0,0,1-1.21-2.7A52.3,52.3,0,0,0,831,89.4ZM818.33,78.55a22.69,22.69,0,0,1-5.62-8.36,19.19,19.19,0,0,1-.26-5.67,32.11,32.11,0,0,0,6.86,8.77A24,24,0,0,0,818.33,78.55Zm.23,4,0,0a32.67,32.67,0,0,1-2.69-4.08Q817,79.75,818.34,81A14.06,14.06,0,0,0,818.56,82.52Zm-6.29-24.74q0-.33,0-.66a32.86,32.86,0,0,1,2.3-7.58c.07-.17.15-.35.23-.52a14.11,14.11,0,0,0,.53,3A29.15,29.15,0,0,0,813,56.14C812.71,56.68,812.48,57.23,812.27,57.78Zm.75,3.5a25.06,25.06,0,0,1,1.47-4.12,26.83,26.83,0,0,1,1.6-3,30.45,30.45,0,0,0,7.3,9.8c-.77,1.36-1.48,2.71-2.09,4.05-.5,1.11-.95,2.19-1.33,3.24A27,27,0,0,1,813,61.28ZM872.5,50a5.49,5.49,0,0,1-2.62,3.49,43,43,0,0,0-4.37-8.21,4.38,4.38,0,0,0,1.42-1.59A30.7,30.7,0,0,1,872.5,50Zm-5.42-10a13.68,13.68,0,0,1,3.31,2.85,13.28,13.28,0,0,1,1.87,3.64c0,.16.09.31.13.47a32.37,32.37,0,0,0-5-5.06,5.2,5.2,0,0,0-.27-1.79Zm9.25,19a7.63,7.63,0,0,1-3.73,5.13,41.27,41.27,0,0,0-2-8.71,7.55,7.55,0,0,0,3.19-3.3A25.77,25.77,0,0,1,876.33,59.05Zm-1.93-9.17v0l0,.08Zm-41.84,4.69A72.87,72.87,0,0,1,839,48a38.88,38.88,0,0,0,8.54,5.46l-3.8,8.27A49.78,49.78,0,0,1,832.56,54.57Zm10.3,9L839,71.94a56.87,56.87,0,0,1-13-8.36,66.87,66.87,0,0,1,5.26-7.43A51.72,51.72,0,0,0,842.86,63.57Zm6.41-9.35a39.88,39.88,0,0,0,8,2.44c.76.14,1.52.26,2.25.35a67.31,67.31,0,0,1-.6,9.16c-1-.11-2-.27-3-.46a51.31,51.31,0,0,1-10.33-3.18C846.83,59.71,848.07,56.92,849.27,54.22Zm9.27-7.77a56.35,56.35,0,0,1,.9,8.49c-.62-.07-1.25-.18-1.88-.3a36.91,36.91,0,0,1-7.46-2.28c1.14-2.58,2.23-5,3.22-7.32a22.19,22.19,0,0,0,4.14,1.23Zm-.23-7a38.45,38.45,0,0,1,4.42,4.91,9.18,9.18,0,0,1-2.82.26A39.25,39.25,0,0,0,858.31,39.41Zm-5.79,3.12a19.26,19.26,0,0,1-3.34-2.09,35.56,35.56,0,0,1,5.5-2.6Zm-.81,1.78-3.34,7.28a36.82,36.82,0,0,1-7.84-5,60.32,60.32,0,0,1,6.84-5.08A21.23,21.23,0,0,0,851.71,44.31Zm-12.58,1a18.18,18.18,0,0,1-4.29-5.89,42.7,42.7,0,0,1,9-2.31,10.89,10.89,0,0,0,2.2,3.15A61,61,0,0,0,839.13,45.35Zm4.24-9.86a43.47,43.47,0,0,0-9.07,2.26,5.57,5.57,0,0,1,.77-4.49,31.48,31.48,0,0,1,8.51,0A4.4,4.4,0,0,0,843.37,35.49ZM837.58,46.7a72.86,72.86,0,0,0-6.48,6.55A24.11,24.11,0,0,1,825,44.74a40.76,40.76,0,0,1,7.92-4.5A20.1,20.1,0,0,0,837.58,46.7Zm-5.22-8.2a42.87,42.87,0,0,0-7.91,4.34,7.69,7.69,0,0,1,1.22-6.49,26.5,26.5,0,0,1,7-2.64A7.65,7.65,0,0,0,832.36,38.5Zm-2.6,16.32a66.94,66.94,0,0,0-5.31,7.38,27.1,27.1,0,0,1-7-10A33.88,33.88,0,0,1,823.34,46,26.68,26.68,0,0,0,829.76,54.82Zm-4.83,10.55a59.05,59.05,0,0,0,13.24,8.43l-3.41,7.42a57.07,57.07,0,0,1-13.19-8.48c.42-1.2.92-2.46,1.51-3.73S824.24,66.59,824.93,65.37Zm10.93,18.47a59.5,59.5,0,0,0,12.28,3.81c1.06.2,2.11.36,3.13.49a19.66,19.66,0,0,1-3.77,4.18c-1.13-.12-2.29-.29-3.45-.51a52.21,52.21,0,0,1-10.42-3.21C834.25,87.29,835,85.7,835.86,83.84Zm12.29,10.31a29,29,0,0,0,3.2.1,32.56,32.56,0,0,1-4.51.71A14.06,14.06,0,0,0,848.15,94.15Zm2-1.64a24,24,0,0,0,3.38-4.14A30.89,30.89,0,0,0,864,87.55a19.69,19.69,0,0,1-4.34,3.38A21.51,21.51,0,0,1,850.13,92.51Zm2.3-6.16c-1.24-.14-2.51-.33-3.8-.58a58.25,58.25,0,0,1-12-3.69c.5-1.08,1-2.23,1.58-3.45l1.82-4a60.18,60.18,0,0,0,12.31,3.81c1.16.22,2.31.4,3.44.53-.48,1.31-1,2.57-1.53,3.75S853.08,85.24,852.43,86.35Zm.41-9.87a58.3,58.3,0,0,1-11.91-3.68l3.79-8.39a52.31,52.31,0,0,0,10.77,3.32c1,.2,2.07.36,3.08.48A62.93,62.93,0,0,1,856.49,77C855.29,76.9,854.07,76.72,852.84,76.48Zm7.72-8.08A25.3,25.3,0,0,0,871,67.18a32.73,32.73,0,0,1-.76,8.46,25.92,25.92,0,0,1-11.67,1.58A61.71,61.71,0,0,0,860.56,68.4Zm.28-2.05a67.32,67.32,0,0,0,.52-9.17,19.11,19.11,0,0,0,7.62-1,39.19,39.19,0,0,1,1.87,8.83A23,23,0,0,1,860.84,66.35Zm7.44-12.06a17.2,17.2,0,0,1-7,.83,57.3,57.3,0,0,0-1-8.54,10.18,10.18,0,0,0,3.65-.51A42.25,42.25,0,0,1,868.28,54.29Zm-4-10.66a39.37,39.37,0,0,0-3.69-4.23,34.15,34.15,0,0,1,4.68,3A2.5,2.5,0,0,1,864.3,43.63Zm-3.45-5.91a19.47,19.47,0,0,1,3.57,1,6.7,6.7,0,0,1,.81,1.6A36.87,36.87,0,0,0,860.85,37.72Zm-2.17-1.88a7.74,7.74,0,0,1,1.89-.78,19.64,19.64,0,0,1,1.71,1.3A22.78,22.78,0,0,0,858.68,35.84Zm-1.92-.71a14,14,0,0,0-.5-2.27A22.74,22.74,0,0,1,858.73,34,14.73,14.73,0,0,0,856.76,35.13Zm1.35,9.25-.38-.07a19.62,19.62,0,0,1-3.62-1.07l2.07-4.79A35.57,35.57,0,0,1,858.11,44.38Zm-6.2-12.6,1.18.18q.54.1,1.08.24a8,8,0,0,1,.77,2A24.07,24.07,0,0,0,851.91,31.78Zm.79,5.1a40.24,40.24,0,0,0-4.88,2.37A10.09,10.09,0,0,1,846,36.9,38.46,38.46,0,0,1,852.7,36.88Zm-1.49-1.7a41.45,41.45,0,0,0-5.79.08,2.62,2.62,0,0,1,.23-1.66A33.42,33.42,0,0,1,851.21,35.18Zm-4-2.92a5.9,5.9,0,0,1,1.52-.44,20.17,20.17,0,0,1,3.07,1.87A36.31,36.31,0,0,0,847.21,32.26Zm-2.62-.53a34,34,0,0,0-5.39-.44c-.63,0-1.27,0-1.9.06a11.46,11.46,0,0,1,4-1.23,14.62,14.62,0,0,1,4.78.64A5.41,5.41,0,0,0,844.59,31.73Zm-21.9,12.41A35.88,35.88,0,0,0,816.78,50a9.34,9.34,0,0,1,.34-5.18,33.18,33.18,0,0,1,5.53-6.44A10.46,10.46,0,0,0,822.69,44.14Zm10.16,46.08a52.44,52.44,0,0,0,10.7,3.3c.56.11,1.11.2,1.66.29a7.87,7.87,0,0,1-2.8.81c-.91-.09-1.86-.23-2.81-.41A38.19,38.19,0,0,1,832,91.9C832.25,91.46,832.52,90.9,832.85,90.22Zm21.79-3.69c.55-1,1.08-2,1.57-3.09.61-1.32,1.18-2.75,1.7-4.24A29.22,29.22,0,0,0,869.59,78,25.65,25.65,0,0,1,868.41,81a24.92,24.92,0,0,1-2.18,3.82A25.44,25.44,0,0,1,854.64,86.53Zm15.49-5a29,29,0,0,0,1.62-4.5,13.63,13.63,0,0,0,2.32-1.51A32.65,32.65,0,0,1,870.25,82a9.49,9.49,0,0,1-.7.72C869.75,82.34,869.94,81.94,870.13,81.54Zm2.18-7a34.38,34.38,0,0,0,.48-8.16,10.33,10.33,0,0,0,4-3.63q0,.6,0,1.2a32.09,32.09,0,0,1-1,6.36A8.94,8.94,0,0,1,872.31,74.53Z"/></g></g></svg>